<?xml version="1.0" encoding="UTF-8" standalone="no"?>
<svg
   xmlns:dc="http://purl.org/dc/elements/1.1/"
   xmlns:cc="http://creativecommons.org/ns#"
   xmlns:rdf="http://www.w3.org/1999/02/22-rdf-syntax-ns#"
   xmlns:svg="http://www.w3.org/2000/svg"
   xmlns="http://www.w3.org/2000/svg"
   xmlns:sodipodi="http://sodipodi.sourceforge.net/DTD/sodipodi-0.dtd"
   xmlns:inkscape="http://www.inkscape.org/namespaces/inkscape"
   width="16"
   height="16"
   fill="currentColor"
   class="bi bi-app-indicator"
   viewBox="0 0 16 16"
   version="1.1"
   id="svg6"
   sodipodi:docname="app-indicator2.svg"
   inkscape:version="1.0.2-2 (e86c870879, 2021-01-15)">
  <metadata
     id="metadata7">
    <rdf:RDF>
      <cc:Work
         rdf:about="">
        <dc:format>image/svg+xml</dc:format>
        <dc:type
           rdf:resource="http://purl.org/dc/dcmitype/StillImage" />
      </cc:Work>
    </rdf:RDF>
  </metadata>
  <defs
     id="defs10" />
  <sodipodi:namedview
     id="namedview8"
     pagecolor="#ffffff"
     bordercolor="#666666"
     borderopacity="1.0"
     inkscape:pageshadow="2"
     inkscape:pageopacity="0.0"
     inkscape:pagecheckerboard="0"
     showgrid="false"
     inkscape:zoom="43.762997"
     inkscape:cx="14.24201"
     inkscape:cy="8.5139245"
     inkscape:window-width="1920"
     inkscape:window-height="1027"
     inkscape:window-x="-8"
     inkscape:window-y="-8"
     inkscape:window-maximized="1"
     inkscape:current-layer="svg6"
     inkscape:document-rotation="0" />
  <path
     d="M5.5 2A3.5 3.5 0 0 0 2 5.5v5A3.5 3.5 0 0 0 5.5 14h5a3.5 3.5 0 0 0 3.5-3.5V8a.5.5 0 0 1 1 0v2.5a4.5 4.5 0 0 1-4.5 4.5h-5A4.5 4.5 0 0 1 1 10.5v-5A4.5 4.5 0 0 1 5.5 1H8a.5.5 0 0 1 0 1H5.5z"
     id="path2"
     style="fill:#666666" />
  <path
     d="m 15.065368,3.0001192 a 2.0653685,2.0653685 0 1 1 -4.130736,0 2.0653685,2.0653685 0 0 1 4.130736,0 z"
     id="path4"
     style="stroke-width:0.688456;fill:#ff5555" />
</svg>
