<?xml version="1.0" encoding="UTF-8" standalone="no"?>
<svg
   width="16"
   height="16"
   fill="currentColor"
   class="bi bi-box-arrow-in-right"
   viewBox="0 0 16 16"
   version="1.1"
   id="svg6"
   sodipodi:docname="box-arrow-in-right.svg"
   inkscape:version="1.1.2 (b8e25be833, 2022-02-05)"
   xmlns:inkscape="http://www.inkscape.org/namespaces/inkscape"
   xmlns:sodipodi="http://sodipodi.sourceforge.net/DTD/sodipodi-0.dtd"
   xmlns="http://www.w3.org/2000/svg"
   xmlns:svg="http://www.w3.org/2000/svg">
  <defs
     id="defs10" />
  <sodipodi:namedview
     id="namedview8"
     pagecolor="#ffffff"
     bordercolor="#666666"
     borderopacity="1.0"
     inkscape:pageshadow="2"
     inkscape:pageopacity="0.0"
     inkscape:pagecheckerboard="0"
     showgrid="false"
     inkscape:zoom="16"
     inkscape:cx="38.65625"
     inkscape:cy="15.84375"
     inkscape:window-width="3840"
     inkscape:window-height="2480"
     inkscape:window-x="-11"
     inkscape:window-y="-11"
     inkscape:window-maximized="1"
     inkscape:current-layer="svg6" />
  <path
     fill-rule="evenodd"
     d="m 4.7760779,3.4109875 a 0.5,0.5 0 0 1 0.5,-0.5 h 7.9999991 a 0.5,0.5 0 0 1 0.5,0.5 v 8.9999995 a 0.5,0.5 0 0 1 -0.5,0.5 H 5.2760779 a 0.5,0.5 0 0 1 -0.5,-0.5 v -2 a 0.5,0.5 0 0 0 -1,0 v 2 a 1.5,1.5 0 0 0 1.5,1.5 h 7.9999991 a 1.5,1.5 0 0 0 1.5,-1.5 V 3.4109875 a 1.5,1.5 0 0 0 -1.5,-1.5 H 5.2760779 a 1.5,1.5 0 0 0 -1.5,1.5 v 2 a 0.5,0.5 0 0 0 1,0 z"
     id="path2" />
  <path
     fill-rule="evenodd"
     d="m 11.00838,8.2649875 a 0.5,0.5 0 0 0 0,-0.708 l -2.9999989,-3 a 0.5006316,0.5006316 0 1 0 -0.708,0.708 l 2.147,2.146 H 0.65438108 a 0.5,0.5 0 0 0 0,1 H 9.4473811 l -2.147,2.1459995 a 0.5006316,0.5006316 0 0 0 0.708,0.708 z"
     id="path4" />
</svg>
