<?xml version="1.0" encoding="UTF-8" standalone="no"?>
<svg
   viewBox="0 0 100 100"
   width="200px"
   height="200px"
   style="width:100%;height:100%;background-size:initial;background-repeat-y:initial;background-repeat-x:initial;background-position-y:initial;background-position-x:initial;background-origin:initial;background-image:initial;background-color:rgba(255, 255, 255, 0);background-clip:initial;background-attachment:initial;animation-play-state:paused"
   version="1.1"
   id="svg8"
   sodipodi:docname="cone-striped.svg"
   inkscape:version="1.1.1 (3bf5ae0d25, 2021-09-20)"
   xmlns:inkscape="http://www.inkscape.org/namespaces/inkscape"
   xmlns:sodipodi="http://sodipodi.sourceforge.net/DTD/sodipodi-0.dtd"
   xmlns="http://www.w3.org/2000/svg"
   xmlns:svg="http://www.w3.org/2000/svg"
   xmlns:d="https://loading.io/stock/">
  <defs
     id="defs12" />
  <sodipodi:namedview
     id="namedview10"
     pagecolor="#505050"
     bordercolor="#ffffff"
     borderopacity="1"
     inkscape:pageshadow="0"
     inkscape:pageopacity="0"
     inkscape:pagecheckerboard="1"
     showgrid="false"
     inkscape:zoom="5.7558492"
     inkscape:cx="97.118597"
     inkscape:cy="82.611615"
     inkscape:window-width="2560"
     inkscape:window-height="1653"
     inkscape:window-x="-8"
     inkscape:window-y="-8"
     inkscape:window-maximized="1"
     inkscape:current-layer="svg8" />
  <g
     class="ldl-scale"
     id="g6"
     transform="matrix(1.1438874,0,0,1.186146,-7.4720915,-9.3069295)">
    <path
       fill="#e15b64"
       clip-rule="evenodd"
       fill-rule="evenodd"
       d="M 72.900154,50.569132 C 71.794154,49.320132 68.66,46.978 66.983,46.628 67.793,51.868 62.933515,58.872836 60.476515,63.486836 59.889515,57.899836 60.647,51.307 55.216,50.242 c 2.027,-2.1 4.079,-4.193 5.517,-6.654 C 63.897,38.17 64.199,31.307 61.896,25.48 59.593,19.653 55.431077,14.555527 49.722077,11.853527 47.024077,10.576527 43.437,10.03 41.263,7.998 c 4.04,6.908 4.551,15.72 1.335,23.039 -2.576,5.862 -7.235,10.528 -11.458,15.369 -3.728,4.274 -7.585,8.985 -9.26,14.544 -1.816,6.028 -0.424,12.713 2.768,18.07 3.134,5.261 8.402,9.107 14.216,11.169 9.918,3.518 21.564,1.823 30.035,-4.371 4.219,-3.085 7.709,-7.305 9.27,-12.257 2.43,-7.704 -0.110846,-17.164868 -5.268846,-22.991868 z"
       style="fill:#000000"
       id="path2"
       sodipodi:nodetypes="cccccscccccccccc" />
    <metadata
       id="metadata4">
      <d:name
         style="animation-play-state:paused">fire</d:name>
      <d:tags
         style="animation-play-state:paused">fire,flame,inferno,burn,hot,warm,temperature,flare,cook,scold,grill</d:tags>
      <d:license
         style="animation-play-state:paused">by</d:license>
      <d:slug
         style="animation-play-state:paused">n0mw47</d:slug>
    </metadata>
  </g>
  <!-- generated by https://loading.io/ -->
</svg>
