<?xml version="1.0" encoding="UTF-8" standalone="no"?>
<svg
   width="16"
   height="16"
   fill="currentColor"
   class="bi bi-database-fill-lock"
   viewBox="0 0 16 16"
   version="1.1"
   id="svg8"
   sodipodi:docname="database-fill-lock.svg"
   inkscape:version="1.3.2 (091e20e, 2023-11-25, custom)"
   xmlns:inkscape="http://www.inkscape.org/namespaces/inkscape"
   xmlns:sodipodi="http://sodipodi.sourceforge.net/DTD/sodipodi-0.dtd"
   xmlns:xlink="http://www.w3.org/1999/xlink"
   xmlns="http://www.w3.org/2000/svg"
   xmlns:svg="http://www.w3.org/2000/svg"
   xmlns:rdf="http://www.w3.org/1999/02/22-rdf-syntax-ns#"
   xmlns:cc="http://creativecommons.org/ns#"
   xmlns:dc="http://purl.org/dc/elements/1.1/">
  <metadata
     id="metadata14">
    <rdf:RDF>
      <cc:Work
         rdf:about="">
        <dc:format>image/svg+xml</dc:format>
        <dc:type
           rdf:resource="http://purl.org/dc/dcmitype/StillImage" />
      </cc:Work>
    </rdf:RDF>
  </metadata>
  <defs
     id="defs12">
    <linearGradient
       id="linearGradient1"
       inkscape:collect="always">
      <stop
         style="stop-color:#50d179;stop-opacity:1;"
         offset="0"
         id="stop1" />
      <stop
         style="stop-color:#61f693;stop-opacity:1;"
         offset="1"
         id="stop2" />
    </linearGradient>
    <inkscape:path-effect
       effect="bspline"
       id="path-effect977"
       is_visible="true"
       lpeversion="1"
       weight="33.333333"
       steps="2"
       helper_size="0"
       apply_no_weight="true"
       apply_with_weight="true"
       only_selected="false" />
    <inkscape:path-effect
       effect="bspline"
       id="path-effect977-2"
       is_visible="true"
       lpeversion="1"
       weight="33.333333"
       steps="2"
       helper_size="0"
       apply_no_weight="true"
       apply_with_weight="true"
       only_selected="false"
       uniform="false" />
    <inkscape:path-effect
       effect="bspline"
       id="path-effect977-2-3"
       is_visible="true"
       lpeversion="1"
       weight="33.333333"
       steps="2"
       helper_size="0"
       apply_no_weight="true"
       apply_with_weight="true"
       only_selected="false"
       uniform="false" />
    <inkscape:path-effect
       effect="bspline"
       id="path-effect977-2-8"
       is_visible="true"
       lpeversion="1"
       weight="33.333333"
       steps="2"
       helper_size="0"
       apply_no_weight="true"
       apply_with_weight="true"
       only_selected="false"
       uniform="false" />
    <filter
       inkscape:collect="always"
       style="color-interpolation-filters:sRGB"
       id="filter3"
       x="-0.57641407"
       y="-0.57641407"
       width="2.1528281"
       height="2.1528281">
      <feGaussianBlur
         inkscape:collect="always"
         stdDeviation="0.66357816"
         id="feGaussianBlur3" />
    </filter>
    <inkscape:path-effect
       effect="bspline"
       id="path-effect977-2-6"
       is_visible="true"
       lpeversion="1"
       weight="33.333333"
       steps="2"
       helper_size="0"
       apply_no_weight="true"
       apply_with_weight="true"
       only_selected="false"
       uniform="false" />
    <linearGradient
       inkscape:collect="always"
       xlink:href="#linearGradient1"
       id="linearGradient2"
       x1="8.8154488"
       y1="5.5061793"
       x2="11.51292"
       y2="9.5384817"
       gradientUnits="userSpaceOnUse" />
  </defs>
  <sodipodi:namedview
     pagecolor="#ffffff"
     bordercolor="#666666"
     borderopacity="1"
     objecttolerance="10"
     gridtolerance="10"
     guidetolerance="10"
     inkscape:pageopacity="0"
     inkscape:pageshadow="2"
     inkscape:window-width="1920"
     inkscape:window-height="1228"
     id="namedview10"
     showgrid="false"
     inkscape:zoom="17.9798"
     inkscape:cx="13.348313"
     inkscape:cy="6.9522464"
     inkscape:window-x="1273"
     inkscape:window-y="-6"
     inkscape:window-maximized="1"
     inkscape:current-layer="svg8"
     inkscape:showpageshadow="2"
     inkscape:pagecheckerboard="0"
     inkscape:deskcolor="#d1d1d1" />
  <rect
     style="fill:#386257;fill-opacity:1;fill-rule:evenodd;stroke:none;stroke-width:0;stroke-linecap:round;stroke-linejoin:round;stroke-miterlimit:4;stroke-dasharray:none"
     id="rect921"
     width="11.798353"
     height="0"
     x="-2.831605"
     y="19.545938" />
  <rect
     style="fill:#081a28;fill-opacity:0.73333335;stroke:#000000;stroke-width:0.0296916;stroke-linecap:round;stroke-linejoin:round;paint-order:fill markers stroke"
     id="rect1"
     width="16.046093"
     height="16.018286"
     x="-0.02796285"
     y="-0.00015426395"
     rx="0"
     ry="0" />
  <path
     d="m 8.053236,2.2775124 c -0.6798988,0 -1.3062011,0.1249146 -1.7704169,0.3358433 -0.4447653,0.2022839 -0.8229673,0.5255924 -0.8229673,0.9608487 0,0.4352563 0.378202,0.7585649 0.8229673,0.9608487 0.4642158,0.2109286 1.0905181,0.3358433 1.7704169,0.3358433 0.679899,0 1.3062012,-0.1249147 1.7704157,-0.3358433 C 10.268418,4.3327693 10.64662,4.0094607 10.64662,3.5742044 10.64662,3.1389481 10.268418,2.8156396 9.8236517,2.6133557 9.3594372,2.402427 8.733135,2.2775124 8.053236,2.2775124"
     id="path2"
     style="fill:#ffffff;fill-opacity:1;stroke-width:0.43223" />
  <path
     d="M 6.2828191,5.8317453 C 5.8380538,5.6294613 5.4598518,5.3061527 5.4598518,4.8708964 V 4.5082548 c 0.1975295,0.1867238 0.4339597,0.3246053 0.6440238,0.4201283 0.5325082,0.2420491 1.2223484,0.374744 1.9493604,0.374744 0.7270121,0 1.4168525,-0.1326949 1.949361,-0.374744 0.210062,-0.095091 0.446494,-0.2334045 0.644023,-0.4201283 v 0.3626416 c 0,0.1832658 -0.067,0.346649 -0.177646,0.4897174 A 1.9450381,1.9450381 0 0 0 9.8794103,5.3065851 1.296692,1.296692 0 0 0 8.9297998,5.6225457 1.9450381,1.9450381 0 0 0 8.3877825,6.157215 5.1867685,5.1867685 0 0 1 8.053236,6.1675885 c -0.6798988,0 -1.3062011,-0.1249148 -1.7704169,-0.3358433 M 8.053236,7.8965113 c -0.727012,0 -1.4168522,-0.1326951 -1.9493604,-0.374744 C 5.8938115,7.4266765 5.6573813,7.2883629 5.4598518,7.1016392 v 0.3626413 c 0,0.435256 0.378202,0.7585645 0.8229673,0.9608491 0.4642158,0.2109288 1.0905181,0.3358429 1.7704169,0.3358429 q 0.05792,0 0.1149733,-0.00135 A 0.86446135,0.86446135 0 0 1 8.053236,8.328742 Z m 0,-0.6483463 q 0,0.064836 0.00432,0.1296693 a 0.86446135,0.86446135 0 0 0 -0.00432,0.086446 C 7.3733372,7.4642805 6.7470349,7.3393658 6.2828191,7.1284373 5.8380538,6.9261533 5.4598518,6.6028446 5.4598518,6.1675886 V 5.8049469 C 5.6573813,5.9916706 5.8938115,6.1295522 6.1038756,6.2250752 6.6363838,6.4671243 7.326224,6.599819 8.053236,6.599819 q 0.056191,0 0.1110833,-8.641e-4 A 1.9450381,1.9450381 0 0 0 8.053236,7.2481701"
     id="path4"
     style="fill:#ffffff;fill-opacity:1;stroke-width:0.43223" />
  <path
     d="M 8.4854666,7.4642805 A 0.43223068,0.43223068 0 0 1 8.9176974,7.0320497 V 6.599819 a 0.86446135,0.86446135 0 1 1 1.7289226,0 v 0.4322307 a 0.43223068,0.43223068 0 0 1 0.43223,0.4322308 V 8.328742 A 0.43223068,0.43223068 0 0 1 10.64662,8.7609725 H 8.9176974 A 0.43223068,0.43223068 0 0 1 8.4854666,8.328742 Z M 9.782158,6.1675886 A 0.43223068,0.43223068 0 0 0 9.3499279,6.599819 V 7.0320497 H 10.214388 V 6.599819 A 0.43223068,0.43223068 0 0 0 9.782158,6.1675886"
     id="path6"
     style="fill:url(#linearGradient2);fill-opacity:1;stroke-width:0.43223" />
  <path
     style="fill:#6a6a6a;fill-opacity:1;stroke:none;stroke-width:0.416282px;stroke-linecap:butt;stroke-linejoin:miter;stroke-opacity:1"
     d="M 10.544444,15.561196 C 9.5076124,15.801001 2.7777378,15.684739 0.75061024,14.954248 -1.2765173,14.223756 1.4099487,12.878504 2.4447956,12.639152 3.4796425,12.3998 2.8632299,13.264447 4.895353,13.996636 c 2.0321231,0.732188 6.685923,1.324755 5.649091,1.56456 z"
     id="path975"
     sodipodi:nodetypes="ccccc"
     transform="matrix(0.93446817,0,0,0.93446817,-4.0204142,4.5866913)"
     inkscape:original-d="M 16.264726,15.917734 C 9.5075954,15.801984 2.7777208,15.685721 -3.9615936,15.568313 -1.2760147,14.22476 1.4104511,12.879507 4.0979647,11.532475 3.4807781,12.40061 2.8643655,13.265257 2.2443715,14.132525 6.9273667,14.729683 11.581167,15.32225 16.264726,15.917734 Z"
     inkscape:path-effect="#path-effect977-2-6" />
  <text
     xml:space="preserve"
     style="font-size:1.80398px;line-height:1;font-family:'Poiret One';-inkscape-font-specification:'Poiret One';fill:#ffffff;stroke-width:0.676577;stroke-miterlimit:10;stroke-dasharray:none"
     x="1.4793248"
     y="11.64854"
     id="text841"
     transform="scale(0.97893853,1.0215146)"><tspan
       sodipodi:role="line"
       id="tspan839"
       x="1.4793248"
       y="11.64854"
       style="font-style:normal;font-variant:normal;font-weight:normal;font-stretch:normal;font-size:1.80398px;font-family:Arial;-inkscape-font-specification:Arial;fill:#ffffff;fill-opacity:1;stroke-width:0.676577;stroke-miterlimit:10;stroke-dasharray:none">Database in </tspan><tspan
       sodipodi:role="line"
       x="1.4793248"
       y="13.536347"
       style="font-style:normal;font-variant:normal;font-weight:normal;font-stretch:normal;font-size:1.80398px;font-family:Arial;-inkscape-font-specification:Arial;fill:#ffffff;fill-opacity:1;stroke-width:0.676577;stroke-miterlimit:10;stroke-dasharray:none"
       id="tspan845"><tspan
   style="font-style:normal;font-variant:normal;font-weight:bold;font-stretch:normal;font-family:Arial;-inkscape-font-specification:'Arial Bold';fill:#ffffff;fill-opacity:1;stroke-width:0.676577;stroke-miterlimit:10;stroke-dasharray:none"
   id="tspan949">read only</tspan> mode</tspan></text>
  <path
     d="m 1.7707308,3.2078665 a 1.3814614,1.3814614 0 1 0 0,-2.76292273 1.3814614,1.3814614 0 0 0 0,2.76292273 m 0.160595,-1.6252893 -0.1726827,0.812472 c -0.012091,0.058711 0.00501,0.09204 0.052496,0.09204 0.0335,0 0.084097,-0.012091 0.1184605,-0.042479 l -0.015196,0.071836 C 1.8648436,2.5761942 1.7555355,2.619711 1.6614235,2.619711 1.540028,2.619711 1.4883955,2.546839 1.5218959,2.3919425 L 1.6493356,1.7930787 c 0.011049,-0.050596 0.00104,-0.068901 -0.04956,-0.08116 l -0.07788,-0.013988 0.014159,-0.065792 0.3954433,-0.04956 z M 1.7707308,1.3946985 a 0.1726827,0.1726827 0 1 1 0,-0.3453654 0.1726827,0.1726827 0 0 1 0,0.3453654"
     id="path1"
     style="opacity:0.59735974;fill:#000000;fill-opacity:1;stroke-width:0.172682;filter:url(#filter3)"
     transform="matrix(0.87654169,0,0,0.87654169,0.88563675,0.94101089)" />
  <circle
     style="fill:#0a172a;fill-opacity:1;stroke:none;stroke-width:0.0262963;stroke-linecap:round;stroke-linejoin:round;stroke-opacity:1;paint-order:fill markers stroke"
     id="path5"
     cx="2.2473004"
     cy="2.3026745"
     r="1.0169386" />
  <path
     d="m 2.0904779,3.4392651 a 1.2840358,1.2840358 0 1 0 0,-2.56807154 1.2840358,1.2840358 0 0 0 0,2.56807154 M 2.2397472,1.928597 2.0792427,2.6837705 c -0.011239,0.054571 0.00466,0.085548 0.048794,0.085548 0.031137,0 0.078166,-0.011239 0.1101062,-0.039483 l -0.014125,0.06677 c -0.046064,0.055534 -0.1476642,0.095982 -0.235139,0.095982 -0.1128342,0 -0.1608254,-0.067733 -0.1296876,-0.2117054 L 1.977644,2.1242533 C 1.987913,2.0772253 1.9786082,2.0602113 1.931579,2.0488173 L 1.859192,2.0358153 1.872352,1.9746643 2.2399072,1.9286003 Z M 2.0904779,1.7539683 a 0.16050453,0.16050453 0 1 1 0,-0.321009 0.16050453,0.16050453 0 0 1 0,0.321009"
     id="path3"
     style="fill:#ffffff;fill-opacity:1;stroke-width:0.160503" />
  <path
     style="fill:#ffffff;fill-opacity:1;stroke:none;stroke-width:0.0347384;stroke-linecap:round;stroke-linejoin:round;paint-order:fill markers stroke"
     id="path8"
     d="m 1.2546773,14.894482 c 0.1165169,-0.05235 0.2312274,-0.119039 0.3495505,-0.157031 0.6301276,-0.202324 1.2313758,-0.292836 1.8770775,-0.337351 0.5174981,-0.03568 1.0356729,-0.04939 1.5535398,-0.03912 1.5136999,0.03004 2.3965474,0.156791 3.9099496,0.317442 0.5905313,0.083 1.1810633,0.165993 1.7715953,0.248989 0,0 0.05472,-0.06841 0.05472,-0.06841 v 0 c -0.598739,-0.07277 -1.1974784,-0.145543 -1.7962187,-0.218304 -0.898123,-0.09981 -2.9357288,-0.337888 -3.84987,-0.39428 -1.0849185,-0.06693 -2.1932732,-0.07429 -3.2732846,0.162162 -0.106143,0.02324 -0.2106513,0.06537 -0.3159771,0.09805 z" />
</svg>
