<?xml version="1.0" encoding="UTF-8" standalone="no"?>
<!-- Generator: Adobe Illustrator 18.1.1, SVG Export Plug-In . SVG Version: 6.00 Build 0)  -->

<svg
   version="1.1"
   id="Capa_1"
   x="0px"
   y="0px"
   viewBox="0 0 612.003 612.003"
   style="enable-background:new 0 0 612.003 612.003;"
   xml:space="preserve"
   sodipodi:docname="nut-fill.svg"
   inkscape:version="1.1.1 (3bf5ae0d25, 2021-09-20)"
   xmlns:inkscape="http://www.inkscape.org/namespaces/inkscape"
   xmlns:sodipodi="http://sodipodi.sourceforge.net/DTD/sodipodi-0.dtd"
   xmlns="http://www.w3.org/2000/svg"
   xmlns:svg="http://www.w3.org/2000/svg"><defs
   id="defs39" /><sodipodi:namedview
   id="namedview37"
   pagecolor="#505050"
   bordercolor="#ffffff"
   borderopacity="1"
   inkscape:pageshadow="0"
   inkscape:pageopacity="0"
   inkscape:pagecheckerboard="1"
   showgrid="false"
   inkscape:zoom="0.33251472"
   inkscape:cx="144.35451"
   inkscape:cy="624.03253"
   inkscape:window-width="2560"
   inkscape:window-height="1653"
   inkscape:window-x="-8"
   inkscape:window-y="-8"
   inkscape:window-maximized="1"
   inkscape:current-layer="Capa_1" />
<g
   id="g4"
   transform="matrix(1.1397016,0,0,1,-22.350183,0)">
	<path
   d="M 534.322,2.55 C 530.49,-0.117 525.595,-0.732 521.227,0.895 L 325.86484,66.519636 289.197,65.988 V 49.938 49.915 49.69 c 0,-0.276 -0.066,-0.536 -0.083,-0.809 -0.031,-0.501 -0.034,-1 -0.12,-1.504 -0.011,-0.071 -0.04,-0.134 -0.054,-0.202 -0.097,-0.544 -0.259,-1.06 -0.416,-1.581 -0.094,-0.302 -0.168,-0.61 -0.279,-0.903 -0.214,-0.57 -0.482,-1.108 -0.764,-1.641 -0.111,-0.208 -0.217,-0.419 -0.336,-0.621 -0.333,-0.561 -0.709,-1.086 -1.114,-1.59 -0.105,-0.131 -0.211,-0.262 -0.322,-0.39 -0.459,-0.536 -0.952,-1.029 -1.484,-1.49 -0.068,-0.06 -0.14,-0.114 -0.208,-0.171 -2.47,-2.057 -5.602,-3.342 -9.066,-3.342 h -54.984 c -0.228,0 -0.439,0.057 -0.664,0.066 H 85.814 c -7.869,0 -14.246,6.376 -14.246,14.246 0,7.87 -4.538851,74.0177 2.550014,70.59938 L 190.983,64.004 81.116,102.388 c -7.425,2.593 -11.343,10.719 -8.75,18.146 2.054,5.872 7.562,9.55 13.451,9.55 1.559,0 3.146,-0.256 4.698,-0.801 l 115.21,-40.248 v 52.223 c -54.117,17.628 -93.348,68.534 -93.348,128.456 v 252.791 c 0,49.348 40.148,89.496 89.496,89.496 h 91.174 c 49.348,0 89.496,-40.148 89.496,-89.496 V 269.716 c 0,-59.921 -39.23,-110.828 -93.345,-128.456 l 0.53164,-38.80646 36.40457,0.53163 203.05287,66.35035 c 1.37,0.419 8.23026,-3.12892 9.56281,-9.14181 0.65213,-2.94261 -3.38108,3.36254 -0.89908,1.53054 3.36718,-2.48464 2.58519,-22.62125 2.58519,-27.14025 V 14.249 C 540.437,9.582 538.152,5.214 534.322,2.55 Z M 177.3829,514.518 c 0,7.869 -10.47025,11.57713 -19.82818,13.18273 C 149.52587,526.64816 138.524,522.387 138.524,514.518 V 257.379 c 0,-7.869 11.69236,-13.44855 19.56236,-13.44855 7.87,0 19.29654,5.57855 19.29654,13.44855 z"
   id="path2"
   sodipodi:nodetypes="ccccccscccccccccccsscssscccscccssssssccccscsccscsssss" />
</g>
<g
   id="g6">
</g>
<g
   id="g8">
</g>
<g
   id="g10">
</g>
<g
   id="g12">
</g>
<g
   id="g14">
</g>
<g
   id="g16">
</g>
<g
   id="g18">
</g>
<g
   id="g20">
</g>
<g
   id="g22">
</g>
<g
   id="g24">
</g>
<g
   id="g26">
</g>
<g
   id="g28">
</g>
<g
   id="g30">
</g>
<g
   id="g32">
</g>
<g
   id="g34">
</g>
</svg>
