<?xml version="1.0" encoding="UTF-8" standalone="no"?>
<svg
   width="16"
   height="16"
   fill="currentColor"
   class="bi bi-list-ul"
   viewBox="0 0 16 16"
   version="1.1"
   id="svg4"
   sodipodi:docname="list-task.svg"
   inkscape:version="1.1.2 (b8e25be833, 2022-02-05)"
   xmlns:inkscape="http://www.inkscape.org/namespaces/inkscape"
   xmlns:sodipodi="http://sodipodi.sourceforge.net/DTD/sodipodi-0.dtd"
   xmlns="http://www.w3.org/2000/svg"
   xmlns:svg="http://www.w3.org/2000/svg">
  <defs
     id="defs8" />
  <sodipodi:namedview
     id="namedview6"
     pagecolor="#ffffff"
     bordercolor="#666666"
     borderopacity="1.0"
     inkscape:pageshadow="2"
     inkscape:pageopacity="0.0"
     inkscape:pagecheckerboard="0"
     showgrid="false"
     inkscape:zoom="44.9375"
     inkscape:cx="7.9888734"
     inkscape:cy="7.9888734"
     inkscape:window-width="3840"
     inkscape:window-height="2480"
     inkscape:window-x="-11"
     inkscape:window-y="-11"
     inkscape:window-maximized="1"
     inkscape:current-layer="svg4" />
  <path
     fill-rule="evenodd"
     d="m 4.8664812,12.390125 a 0.5,0.5 0 0 1 0.5,-0.5 h 8.9999998 a 0.5,0.5 0 0 1 0,1 H 5.3664812 a 0.5,0.5 0 0 1 -0.5,-0.5 z m 0,-3.9999999 a 0.5,0.5 0 0 1 0.5,-0.5 h 8.9999998 a 0.5,0.5 0 0 1 0,1 H 5.3664812 a 0.5,0.5 0 0 1 -0.5,-0.5 z m 0,-4 a 0.5,0.5 0 0 1 0.5,-0.5 h 8.9999998 a 0.5,0.5 0 0 1 0,1 H 5.3664812 a 0.5,0.5 0 0 1 -0.5,-0.5 z m -3,1 a 1,1 0 1 0 0,-2 1,1 0 0 0 0,2 z m 0,4 a 1,1 0 1 0 0,-2 1,1 0 0 0 0,2 z m 0,3.9999999 a 1,1 0 1 0 0,-2 1,1 0 0 0 0,2 z"
     id="path2"
     style="stroke:#000000;stroke-width:0.5;stroke-miterlimit:4;stroke-dasharray:none;stroke-opacity:1" />
</svg>
