<?xml version="1.0" encoding="UTF-8" standalone="no"?>
<svg
   width="16"
   height="16"
   fill="currentColor"
   class="bi bi-list-task"
   viewBox="0 0 16 16"
   version="1.1"
   id="svg8"
   sodipodi:docname="list-ul.svg"
   inkscape:version="1.1.1 (3bf5ae0d25, 2021-09-20)"
   xmlns:inkscape="http://www.inkscape.org/namespaces/inkscape"
   xmlns:sodipodi="http://sodipodi.sourceforge.net/DTD/sodipodi-0.dtd"
   xmlns="http://www.w3.org/2000/svg"
   xmlns:svg="http://www.w3.org/2000/svg">
  <defs
     id="defs12" />
  <sodipodi:namedview
     id="namedview10"
     pagecolor="#505050"
     bordercolor="#ffffff"
     borderopacity="1"
     inkscape:pageshadow="0"
     inkscape:pageopacity="0"
     inkscape:pagecheckerboard="1"
     showgrid="false"
     inkscape:zoom="50.875"
     inkscape:cx="8"
     inkscape:cy="9.5626536"
     inkscape:window-width="2560"
     inkscape:window-height="1653"
     inkscape:window-x="-8"
     inkscape:window-y="-8"
     inkscape:window-maximized="1"
     inkscape:current-layer="svg8" />
  <path
     fill-rule="evenodd"
     d="M 1.3224656,3.0105841 A 0.55508409,0.55508409 0 0 0 0.76738157,3.5656683 V 4.6758365 A 0.55508409,0.55508409 0 0 0 1.3224656,5.2309205 H 2.4326338 A 0.55508409,0.55508409 0 0 0 2.987718,4.6758365 V 3.5656683 A 0.55508409,0.55508409 0 0 0 2.4326338,3.0105841 Z M 2.4326338,3.5656683 H 1.3224656 v 1.1101682 h 1.1101682 z"
     id="path2"
     style="fill:#000000;fill-opacity:1;stroke:#000000;stroke-width:0.77169341;stroke-miterlimit:4;stroke-dasharray:none;stroke-opacity:1" />
  <path
     d="m 4.6529702,4.1207523 a 0.55508409,0.55508409 0 0 1 0.5550842,-0.555084 h 9.9915136 a 0.5550841,0.5550841 0 0 1 0,1.1101682 H 5.2080544 A 0.55508409,0.55508409 0 0 1 4.6529702,4.1207523 Z m 0.5550842,3.8855888 a 0.55508409,0.55508409 0 0 0 0,1.110168 h 9.9915136 a 0.55508409,0.55508409 0 0 0 0,-1.110168 z m 0,4.4406729 a 0.55508409,0.55508409 0 0 0 0,1.110168 h 9.9915136 a 0.55508409,0.55508409 0 0 0 0,-1.110168 z"
     id="path4"
     style="fill:#000000;fill-opacity:1;stroke:#000000;stroke-width:0.33072662;stroke-miterlimit:4;stroke-dasharray:none;stroke-opacity:1" />
  <path
     fill-rule="evenodd"
     d="M 0.76738157,8.0063411 A 0.55508409,0.55508409 0 0 1 1.3224656,7.4512569 H 2.4326338 A 0.55508409,0.55508409 0 0 1 2.987718,8.0063411 v 1.110168 A 0.55508409,0.55508409 0 0 1 2.4326338,9.6715933 H 1.3224656 A 0.55508409,0.55508409 0 0 1 0.76738157,9.1165091 Z m 0.55508403,0 h 1.1101682 v 1.110168 H 1.3224656 Z m 0,3.8855889 a 0.55508409,0.55508409 0 0 0 -0.55508403,0.555084 v 1.110168 A 0.55508409,0.55508409 0 0 0 1.3224656,14.112266 H 2.4326338 A 0.55508409,0.55508409 0 0 0 2.987718,13.557182 V 12.447014 A 0.55508409,0.55508409 0 0 0 2.4326338,11.89193 Z m 1.1101682,0.555084 H 1.3224656 v 1.110168 h 1.1101682 z"
     id="path6"
     style="fill:#000000;fill-opacity:1;stroke:#000000;stroke-width:0.772;stroke-miterlimit:4;stroke-dasharray:none;stroke-opacity:1" />
</svg>
