<?xml version="1.0" encoding="UTF-8" standalone="no"?>
<svg
   width="16"
   height="16"
   fill="currentColor"
   class="bi bi-patch-exclamation"
   viewBox="0 0 16 16"
   version="1.1"
   id="svg6"
   sodipodi:docname="patch-exclamation.svg"
   inkscape:version="1.1.2 (b8e25be833, 2022-02-05)"
   xmlns:inkscape="http://www.inkscape.org/namespaces/inkscape"
   xmlns:sodipodi="http://sodipodi.sourceforge.net/DTD/sodipodi-0.dtd"
   xmlns="http://www.w3.org/2000/svg"
   xmlns:svg="http://www.w3.org/2000/svg">
  <defs
     id="defs10">
    <inkscape:path-effect
       effect="bspline"
       id="path-effect1925"
       is_visible="true"
       lpeversion="1"
       weight="33.333333"
       steps="2"
       helper_size="0"
       apply_no_weight="true"
       apply_with_weight="true"
       only_selected="false" />
    <inkscape:path-effect
       effect="bspline"
       id="path-effect1174"
       is_visible="true"
       lpeversion="1"
       weight="33.333333"
       steps="2"
       helper_size="0"
       apply_no_weight="true"
       apply_with_weight="true"
       only_selected="false" />
  </defs>
  <sodipodi:namedview
     id="namedview8"
     pagecolor="#ffffff"
     bordercolor="#666666"
     borderopacity="1.0"
     inkscape:pageshadow="2"
     inkscape:pageopacity="0.0"
     inkscape:pagecheckerboard="0"
     showgrid="false"
     inkscape:zoom="44.9375"
     inkscape:cx="8"
     inkscape:cy="7.9888734"
     inkscape:window-width="3840"
     inkscape:window-height="2480"
     inkscape:window-x="-11"
     inkscape:window-y="-11"
     inkscape:window-maximized="1"
     inkscape:current-layer="svg6" />
  <path
     style="fill:#ff9191;fill-opacity:1;stroke:#ffffff;stroke-width:0.32041;stroke-linecap:round;stroke-linejoin:round;stroke-miterlimit:111"
     d="M 5.5019193,14.57017 C 5.2160575,14.318434 5.0456808,13.981571 4.9240269,13.427602 4.7138608,12.470572 4.2570241,10.223537 4.5054684,8.5321655 4.6142969,7.7912777 4.858429,6.6578607 5.1538612,5.8698403 6.3376359,2.7124138 8.819417,0.98458809 10.277015,0.16715162 c 1.636266,-0.91763769 3.437893,-0.14395235 4.706544,2.02116648 0.414853,0.7079991 0.655173,1.3238794 0.849698,2.177552 0.374471,1.6433753 0.218905,3.1758521 -0.464776,4.5784991 -0.09944,0.2040115 -0.332107,0.6057881 -0.517032,0.8928333 -0.617645,0.9587345 -0.672414,2.0060745 -1.655979,2.8725365 -1.807157,1.591989 -4.5011884,2.286669 -6.0966346,2.329596 -0.6558849,0.01765 -1.2384711,-0.153513 -1.5969134,-0.469164 z"
     id="path901"
     sodipodi:nodetypes="sssccsscccsss" />
  <path
     d="m 7.1044591,10.783612 a 0.98597296,0.94205171 0 1 1 1.9719459,0 0.98597296,0.94205171 0 0 1 -1.9719459,0 z m 0.097611,-5.6570213 a 0.89230546,0.85255675 0 1 1 1.7747511,0 L 8.6317309,8.4303659 a 0.54524301,0.52095457 0 0 1 -1.0845701,0 z"
     id="path2"
     style="stroke-width:0.963761" />
  <path
     d="M 10.197044,2.8106717 9.2889626,1.9213749 9.9939332,1.2638228 10.607208,1.8639097 11.484725,1.8535527 a 2.8494617,2.7225293 0 0 1 2.882984,2.754559 l -0.0099,0.838426 0.62708,0.5859561 a 2.8494617,2.7225293 0 0 1 0,3.8944411 l -0.628065,0.5859561 0.01081,0.838426 a 2.8494617,2.7225293 0 0 1 -2.883004,2.754559 l -0.877516,-0.0094 -0.6132748,0.599146 a 2.8494617,2.7225293 0 0 1 -4.0760125,0 l -0.613225,-0.600081 -0.877516,0.01035 A 2.8494617,2.7225293 0 0 1 1.5441455,11.351313 l 0.00986,-0.838427 -0.62707868,-0.5859558 a 2.8494617,2.7225293 0 0 1 0,-3.8944419 L 1.5549954,5.4465322 1.544144,4.6081061 A 2.8494617,2.7225293 0 0 1 4.4271301,1.8535472 l 0.8775161,0.00943 0.613275,-0.599145 a 2.8494617,2.7225293 0 0 1 4.076012,0 L 9.2889626,1.9213749 a 1.8634888,1.7804776 0 0 0 -2.6660708,0 L 5.7157968,2.8106717 4.4143126,2.7955987 A 1.8634888,1.7804776 0 0 0 2.5301183,4.5968014 l 0.015776,1.2416243 -0.9307585,0.8676295 a 1.8634888,1.7804776 0 0 0 0,2.5473077 l 0.9307579,0.8666871 -0.015776,1.243508 a 1.8634888,1.7804776 0 0 0 1.8851803,1.80026 l 1.2995125,-0.01507 0.9080808,0.889295 a 1.8634888,1.7804776 0 0 0 2.666071,0 l 0.9070957,-0.889295 1.301482,0.01507 a 1.8634888,1.7804776 0 0 0 1.884195,-1.801203 l -0.01578,-1.241622 0.930756,-0.8676301 a 1.8634888,1.7804776 0 0 0 0,-2.5473077 L 13.365957,5.8393676 13.381732,4.5958595 A 1.8634888,1.7804776 0 0 0 11.496554,2.7955987 Z"
     id="path4"
     style="stroke-width:0.963761" />
</svg>
