<?xml version="1.0" encoding="UTF-8" standalone="no"?>
<svg
   xmlns:dc="http://purl.org/dc/elements/1.1/"
   xmlns:cc="http://creativecommons.org/ns#"
   xmlns:rdf="http://www.w3.org/1999/02/22-rdf-syntax-ns#"
   xmlns:svg="http://www.w3.org/2000/svg"
   xmlns="http://www.w3.org/2000/svg"
   xmlns:sodipodi="http://sodipodi.sourceforge.net/DTD/sodipodi-0.dtd"
   xmlns:inkscape="http://www.inkscape.org/namespaces/inkscape"
   width="16"
   height="16"
   fill="currentColor"
   class="bi bi-pencil-square"
   viewBox="0 0 16 16"
   version="1.1"
   id="svg6"
   sodipodi:docname="pencil-check.svg"
   inkscape:version="1.0.2-2 (e86c870879, 2021-01-15)">
  <metadata
     id="metadata12">
    <rdf:RDF>
      <cc:Work
         rdf:about="">
        <dc:format>image/svg+xml</dc:format>
        <dc:type
           rdf:resource="http://purl.org/dc/dcmitype/StillImage" />
      </cc:Work>
    </rdf:RDF>
  </metadata>
  <defs
     id="defs10" />
  <sodipodi:namedview
     pagecolor="#ffffff"
     bordercolor="#666666"
     borderopacity="1"
     objecttolerance="10"
     gridtolerance="10"
     guidetolerance="10"
     inkscape:pageopacity="0"
     inkscape:pageshadow="2"
     inkscape:window-width="1920"
     inkscape:window-height="1027"
     id="namedview8"
     showgrid="false"
     inkscape:zoom="18.023112"
     inkscape:cx="-10.291158"
     inkscape:cy="4.0858944"
     inkscape:window-x="-8"
     inkscape:window-y="-8"
     inkscape:window-maximized="1"
     inkscape:current-layer="svg6"
     inkscape:document-rotation="0" />
  <path
     d="m 15.773621,3.1142499 a 0.5,0.5 0 0 1 0,0.706 l -1.043,1.044 -2,-2 1.043,-1.044 a 0.5,0.5 0 0 1 0.707,0 l 1.293,1.293 z m -1.75,2.456 -2,-2 -6.8130001,6.8140001 a 0.5,0.5 0 0 0 -0.121,0.196 l -0.805,2.414 a 0.25,0.25 0 0 0 0.316,0.316 l 2.414,-0.805 a 0.5,0.5 0 0 0 0.196,-0.12 L 14.023621,5.5712499 Z"
     id="path2" />
  <path
     d="m 7.2293723,2.0464981 a 0.75,0.75 0 0 1 0.9448799,1.163874 L 3.647421,7.7190299 A 0.75,0.75 0 0 1 2.5720449,7.6172169 L 0.24102721,4.6899329 A 0.75,0.75 0 1 1 1.4137107,3.7561163 L 3.2585516,6.0717258 7.2080144,2.0662172 a 0.267,0.267 0 0 1 0.022352,-0.019606 z"
     id="path2-3" />
</svg>
