<?xml version="1.0" encoding="UTF-8" standalone="no"?>
<svg
   width="16"
   height="16"
   fill="currentColor"
   class="bi bi-qr-code"
   viewBox="0 0 16 16"
   version="1.1"
   id="svg12"
   sodipodi:docname="qr-code.svg"
   inkscape:version="1.1.1 (3bf5ae0d25, 2021-09-20)"
   xmlns:inkscape="http://www.inkscape.org/namespaces/inkscape"
   xmlns:sodipodi="http://sodipodi.sourceforge.net/DTD/sodipodi-0.dtd"
   xmlns="http://www.w3.org/2000/svg"
   xmlns:svg="http://www.w3.org/2000/svg">
  <defs
     id="defs16" />
  <sodipodi:namedview
     id="namedview14"
     pagecolor="#505050"
     bordercolor="#ffffff"
     borderopacity="1"
     inkscape:pageshadow="0"
     inkscape:pageopacity="0"
     inkscape:pagecheckerboard="1"
     showgrid="false"
     inkscape:zoom="32"
     inkscape:cx="-0.90625"
     inkscape:cy="13.859375"
     inkscape:window-width="2560"
     inkscape:window-height="1653"
     inkscape:window-x="-8"
     inkscape:window-y="-8"
     inkscape:window-maximized="1"
     inkscape:current-layer="svg12" />
  <path
     d="M2 2h2v2H2V2Z"
     id="path2" />
  <path
     d="M6 0v6H0V0h6ZM5 1H1v4h4V1ZM4 12H2v2h2v-2Z"
     id="path4" />
  <path
     d="M6 10v6H0v-6h6Zm-5 1v4h4v-4H1Zm11-9h2v2h-2V2Z"
     id="path6" />
  <path
     d="M10 0v6h6V0h-6Zm5 1v4h-4V1h4ZM8 1V0h1v2H8v2H7V1h1Zm0 5V4h1v2H8ZM6 8V7h1V6h1v2h1V7h5v1h-4v1H7V8H6Zm0 0v1H2V8H1v1H0V7h3v1h3Zm10 1h-1V7h1v2Zm-1 0h-1v2h2v-1h-1V9Zm-4 0h2v1h-1v1h-1V9Zm2 3v-1h-1v1h-1v1H9v1h3v-2h1Zm0 0h3v1h-2v1h-1v-2Zm-4-1v1h1v-2H7v1h2Z"
     id="path8" />
  <path
     d="M7 12h1v3h4v1H7v-4Zm9 2v2h-3v-1h2v-1h1Z"
     id="path10" />
</svg>
