<?xml version="1.0" encoding="UTF-8" standalone="no"?>
<svg
   xmlns:dc="http://purl.org/dc/elements/1.1/"
   xmlns:cc="http://creativecommons.org/ns#"
   xmlns:rdf="http://www.w3.org/1999/02/22-rdf-syntax-ns#"
   xmlns:svg="http://www.w3.org/2000/svg"
   xmlns="http://www.w3.org/2000/svg"
   xmlns:sodipodi="http://sodipodi.sourceforge.net/DTD/sodipodi-0.dtd"
   xmlns:inkscape="http://www.inkscape.org/namespaces/inkscape"
   width="16"
   height="16"
   fill="currentColor"
   class="bi bi-slash-square"
   viewBox="0 0 16 16"
   version="1.1"
   id="svg6"
   sodipodi:docname="slash-square.svg"
   inkscape:version="1.0.2-2 (e86c870879, 2021-01-15)">
  <metadata
     id="metadata9">
    <rdf:RDF>
      <cc:Work
         rdf:about="">
        <dc:format>image/svg+xml</dc:format>
        <dc:type
           rdf:resource="http://purl.org/dc/dcmitype/StillImage" />
      </cc:Work>
    </rdf:RDF>
  </metadata>
  <defs
     id="defs10" />
  <sodipodi:namedview
     id="namedview8"
     pagecolor="#ffffff"
     bordercolor="#666666"
     borderopacity="1.0"
     inkscape:pageshadow="2"
     inkscape:pageopacity="0.0"
     inkscape:pagecheckerboard="0"
     showgrid="false"
     inkscape:zoom="30.945112"
     inkscape:cx="9.3387333"
     inkscape:cy="7.8905995"
     inkscape:window-width="1920"
     inkscape:window-height="1027"
     inkscape:window-x="-8"
     inkscape:window-y="-8"
     inkscape:window-maximized="1"
     inkscape:current-layer="svg6"
     inkscape:document-rotation="0" />
  <path
     style="fill:#cccccc;fill-opacity:1;stroke:#ffffff;stroke-width:0.368905;stroke-linecap:round;stroke-linejoin:round;stroke-miterlimit:111"
     d="M 3.3275596,15.606902 C 2.9255555,15.380647 2.6634308,15.05701 2.4384736,14.509197 2.0498429,13.562805 1.9845546,12.411123 2.2220352,10.691307 2.3264654,9.9350267 2.7248831,8.3337944 3.0139637,7.5084505 4.1723008,4.2014725 6.0026197,1.5525338 7.7990954,0.58314907 9.8157777,-0.50506214 12.251376,0.09951955 14.161817,2.1625515 c 0.624719,0.6746164 1.011422,1.2733159 1.367253,2.1168063 0.685001,1.6237732 0.667523,3.1876221 -0.05222,4.6722279 -0.104693,0.2159324 -0.358734,0.6448082 -0.564544,0.953054 -0.687413,1.0295443 -1.430171,1.8282173 -2.604443,2.8005143 -2.157552,1.786444 -4.7784923,3.01844 -6.8475714,3.218754 -0.8505942,0.08235 -1.6286575,-0.0333 -2.1327312,-0.317005 z"
     id="path901" />
  <g
     id="g1286"
     transform="matrix(0.77703867,0,0,0.77703867,0.37797592,1.6705872)"
     style="stroke:#000000;stroke-width:0.20591;stroke-miterlimit:4;stroke-dasharray:none;stroke-opacity:1">
    <path
       d="m 14,1 a 1,1 0 0 1 1,1 v 12 a 1,1 0 0 1 -1,1 H 2 A 1,1 0 0 1 1,14 V 2 A 1,1 0 0 1 2,1 Z M 2,0 A 2,2 0 0 0 0,2 v 12 a 2,2 0 0 0 2,2 h 12 a 2,2 0 0 0 2,-2 V 2 A 2,2 0 0 0 14,0 Z"
       id="path2"
       style="stroke:#000000;stroke-width:0.20591;stroke-miterlimit:4;stroke-dasharray:none;stroke-opacity:1" />
    <path
       d="m 31.232939,6.8917379 a 0.5,0.5 0 0 1 0,0.708 l -6,6.0000001 a 0.5006316,0.5006316 0 0 1 -0.708,-0.708 l 6,-6.0000001 a 0.5,0.5 0 0 1 0.708,0 z"
       id="path4"
       style="stroke:#000000;stroke-width:0.20591;stroke-miterlimit:4;stroke-dasharray:none;stroke-opacity:1" />
  </g>
</svg>
