<?xml version="1.0" encoding="UTF-8" standalone="no"?>
<svg
   xmlns:dc="http://purl.org/dc/elements/1.1/"
   xmlns:cc="http://creativecommons.org/ns#"
   xmlns:rdf="http://www.w3.org/1999/02/22-rdf-syntax-ns#"
   xmlns:svg="http://www.w3.org/2000/svg"
   xmlns="http://www.w3.org/2000/svg"
   xmlns:sodipodi="http://sodipodi.sourceforge.net/DTD/sodipodi-0.dtd"
   xmlns:inkscape="http://www.inkscape.org/namespaces/inkscape"
   width="16"
   height="16"
   fill="currentColor"
   class="bi bi-square-fill"
   viewBox="0 0 16 16"
   version="1.1"
   id="svg4"
   sodipodi:docname="square-fillx2.svg"
   inkscape:version="1.0.2-2 (e86c870879, 2021-01-15)">
  <metadata
     id="metadata10">
    <rdf:RDF>
      <cc:Work
         rdf:about="">
        <dc:format>image/svg+xml</dc:format>
        <dc:type
           rdf:resource="http://purl.org/dc/dcmitype/StillImage" />
        <dc:title></dc:title>
      </cc:Work>
    </rdf:RDF>
  </metadata>
  <defs
     id="defs8" />
  <sodipodi:namedview
     pagecolor="#ffffff"
     bordercolor="#666666"
     borderopacity="1"
     objecttolerance="10"
     gridtolerance="10"
     guidetolerance="10"
     inkscape:pageopacity="0"
     inkscape:pageshadow="2"
     inkscape:window-width="1920"
     inkscape:window-height="1027"
     id="namedview6"
     showgrid="false"
     inkscape:zoom="209.38068"
     inkscape:cx="13.468105"
     inkscape:cy="7.1055558"
     inkscape:window-x="-8"
     inkscape:window-y="-8"
     inkscape:window-maximized="1"
     inkscape:current-layer="svg4" />
  <path
     d="m 5.1304896,0.75558554 a 0.71737761,0.71737761 0 0 1 0.7173775,-0.7173776 h 4.3042649 a 0.71737761,0.71737761 0 0 1 0.717379,0.7173776 V 5.0598511 A 0.71737761,0.71737761 0 0 1 10.152132,5.7772289 H 5.8478671 A 0.71737761,0.71737761 0 0 1 5.1304896,5.0598511 Z"
     id="path2"
     style="stroke-width:0.358689" />
  <rect
     style="fill:#000000;stroke:#000000;stroke-width:0.116968"
     id="rect841"
     width="15.613375"
     height="0.79264677"
     x="0.18671605"
     y="7.6468978"
     rx="0.38490862"
     ry="0.38490862" />
  <path
     d="m 5.1304896,10.995058 a 0.71737761,0.71737761 0 0 1 0.7173775,-0.717377 h 4.3042649 a 0.71737761,0.71737761 0 0 1 0.717379,0.717377 v 4.304266 a 0.71737761,0.71737761 0 0 1 -0.717379,0.717378 H 5.8478671 A 0.71737761,0.71737761 0 0 1 5.1304896,15.299324 Z"
     id="path857"
     style="stroke-width:0.358689" />
</svg>
