<?xml version="1.0" encoding="UTF-8" standalone="no"?>
<svg
   xml:space="preserve"
   viewBox="0 0 100 100"
   y="0"
   x="0"
   id="圖層_1"
   version="1.1"
   width="200px"
   height="200px"
   style="width:100%;height:100%;background-size:initial;background-repeat-y:initial;background-repeat-x:initial;background-position-y:initial;background-position-x:initial;background-origin:initial;background-image:initial;background-color:rgb(255, 255, 255);background-clip:initial;background-attachment:initial;animation-play-state:paused"
   sodipodi:docname="stamp-1.1s-200px.svg"
   inkscape:version="1.1.2 (b8e25be833, 2022-02-05)"
   xmlns:inkscape="http://www.inkscape.org/namespaces/inkscape"
   xmlns:sodipodi="http://sodipodi.sourceforge.net/DTD/sodipodi-0.dtd"
   xmlns="http://www.w3.org/2000/svg"
   xmlns:svg="http://www.w3.org/2000/svg"><defs
     id="defs13" /><sodipodi:namedview
     id="namedview11"
     pagecolor="#ffffff"
     bordercolor="#666666"
     borderopacity="1.0"
     inkscape:pageshadow="2"
     inkscape:pageopacity="0.0"
     inkscape:pagecheckerboard="0"
     showgrid="false"
     inkscape:zoom="1.7975"
     inkscape:cx="363.83866"
     inkscape:cy="-59.527121"
     inkscape:window-width="3840"
     inkscape:window-height="2480"
     inkscape:window-x="-11"
     inkscape:window-y="-11"
     inkscape:window-maximized="1"
     inkscape:current-layer="圖層_1" /><!-- generated by https://loading.io/ --><path
     style="fill:#000000;stroke:#e8e8e8;stroke-width:0.0834492;stroke-linecap:round;paint-order:fill markers stroke"
     d="m 74.912281,144.84995 c -0.566001,-0.17056 -1.036977,-0.65693 -1.198226,-1.2374 -0.07595,-0.27341 -0.138444,-1.16992 -0.13887,-1.99224 l -7.76e-4,-1.49514 H 71.905424 70.23644 v -10.75361 c 0,-9.41455 0.02751,-10.84769 0.220898,-11.50904 0.441628,-1.51028 1.468201,-2.69703 2.972805,-3.43665 l 0.770135,-0.37858 5.910988,-0.074 c 5.553715,-0.0695 5.953811,-0.0913 6.619481,-0.36087 1.535197,-0.62173 2.51446,-1.55306 3.2228,-3.06506 0.368872,-0.78738 0.38025,-0.88449 0.38025,-3.2456 v -2.43394 L 89.665562,103.477 c -0.782473,-1.62859 -2.184637,-4.074658 -2.790415,-4.867871 -0.233678,-0.30598 -1.1192,-1.276077 -1.967827,-2.155771 -1.724773,-1.787916 -2.516073,-2.780185 -3.570015,-4.476711 -3.010546,-4.84606 -4.576306,-11.487746 -4.141741,-17.568554 0.770961,-10.787953 7.721429,-17.643026 19.396926,-19.130705 1.647002,-0.20986 5.76014,-0.210899 7.51043,-0.0019 4.1105,0.490831 7.85222,1.814605 10.77886,3.813427 1.33771,0.913623 3.4882,3.064064 4.40212,4.402037 1.78286,2.610076 2.82507,5.383168 3.33371,8.870242 0.29528,2.024448 0.29088,6.028996 -0.009,8.028185 -0.94295,6.289815 -3.60852,11.739118 -7.72177,15.785813 -1.45855,1.434949 -1.90859,2.076294 -2.72733,3.886648 -0.34725,0.76782 -0.92248,1.91292 -1.27829,2.54468 -1.20718,2.14342 -1.27812,2.4079 -1.27812,4.76478 0,1.88371 0.0324,2.16501 0.33368,2.89778 0.66136,1.60847 1.74652,2.7035 3.30169,3.33171 0.70333,0.28411 1.02525,0.30236 6.6501,0.377 5.77006,0.0766 5.92746,0.086 6.60185,0.39489 1.45921,0.6684 2.54961,1.89534 3.01592,3.3936 0.24069,0.77333 0.25705,1.5113 0.25705,11.59238 l 1e-5,10.76646 h -1.65502 -1.65501 l -0.0487,1.77967 c -0.0528,1.92826 -0.17085,2.28651 -0.9138,2.77333 -0.35384,0.23186 -1.74242,0.24663 -25.27623,0.26892 -13.756811,0.013 -25.081141,-0.0304 -25.302479,-0.0971 z"
     id="path1843"
     transform="scale(0.5)" /></svg>
