<?xml version="1.0" encoding="UTF-8" standalone="no"?>
<svg
   xmlns:dc="http://purl.org/dc/elements/1.1/"
   xmlns:cc="http://creativecommons.org/ns#"
   xmlns:rdf="http://www.w3.org/1999/02/22-rdf-syntax-ns#"
   xmlns:svg="http://www.w3.org/2000/svg"
   xmlns="http://www.w3.org/2000/svg"
   xmlns:sodipodi="http://sodipodi.sourceforge.net/DTD/sodipodi-0.dtd"
   xmlns:inkscape="http://www.inkscape.org/namespaces/inkscape"
   width="16"
   height="16"
   fill="currentColor"
   class="bi bi-wrench-adjustable-circle"
   viewBox="0 0 16 16"
   version="1.1"
   id="svg6"
   sodipodi:docname="wrench-adjustable-circle.svg"
   inkscape:version="1.0.2-2 (e86c870879, 2021-01-15)">
  <metadata
     id="metadata12">
    <rdf:RDF>
      <cc:Work
         rdf:about="">
        <dc:format>image/svg+xml</dc:format>
        <dc:type
           rdf:resource="http://purl.org/dc/dcmitype/StillImage" />
        <dc:title></dc:title>
      </cc:Work>
    </rdf:RDF>
  </metadata>
  <defs
     id="defs10" />
  <sodipodi:namedview
     pagecolor="#ffffff"
     bordercolor="#666666"
     borderopacity="1"
     objecttolerance="10"
     gridtolerance="10"
     guidetolerance="10"
     inkscape:pageopacity="0"
     inkscape:pageshadow="2"
     inkscape:window-width="1920"
     inkscape:window-height="1027"
     id="namedview8"
     showgrid="false"
     inkscape:zoom="52.34517"
     inkscape:cx="8"
     inkscape:cy="8"
     inkscape:window-x="-8"
     inkscape:window-y="-8"
     inkscape:window-maximized="1"
     inkscape:current-layer="svg6" />
  <path
     d="M12.496 8a4.491 4.491 0 0 1-1.703 3.526L9.497 8.5l2.959-1.11c.027.2.04.403.04.61Z"
     id="path2"
     style="fill:#ffffff" />
  <path
     d="M16 8A8 8 0 1 1 0 8a8 8 0 0 1 16 0Zm-1 0a7 7 0 1 0-13.202 3.249l1.988-1.657a4.5 4.5 0 0 1 7.537-4.623L7.497 6.5l1 2.5 1.333 3.11c-.56.251-1.18.39-1.833.39a4.49 4.49 0 0 1-1.592-.29L4.747 14.2A7 7 0 0 0 15 8Zm-8.295.139a.25.25 0 0 0-.288-.376l-1.5.5.159.474.808-.27-.595.894a.25.25 0 0 0 .287.376l.808-.27-.595.894a.25.25 0 0 0 .287.376l1.5-.5-.159-.474-.808.27.596-.894a.25.25 0 0 0-.288-.376l-.808.27.596-.894Z"
     id="path4"
     style="fill:#ffffff" />
  <path
     style="fill:#ffffff;stroke-width:0.019104"
     d="m 5.8749247,10.701961 c -0.066684,-0.03618 -0.1100879,-0.120074 -0.1100879,-0.212782 0,-0.06211 0.045914,-0.141485 0.3165589,-0.5472518 C 6.2555031,9.6808955 6.3946188,9.4639883 6.3905419,9.4599113 6.3864649,9.4558343 6.1961957,9.51684 5.9677214,9.5954795 5.7392471,9.6741189 5.5259242,9.7384603 5.4936705,9.7384603 c -0.091034,0 -0.1802331,-0.066111 -0.2161738,-0.1602201 C 5.2348269,9.4665108 5.2407515,9.4543417 5.6000856,8.9156425 5.7642874,8.6694778 5.8920558,8.4658774 5.8840154,8.4631973 5.8759749,8.4605171 5.6928324,8.5173294 5.4770321,8.5894468 L 5.0846678,8.7205693 5.005563,8.4950236 4.9264583,8.2694779 5.709131,8.0092494 C 6.5777629,7.7204406 6.5545578,7.7242983 6.6738997,7.8488643 6.719384,7.8963397 6.7295221,7.9233849 6.7292343,7.9964784 6.7289047,8.0801464 6.7087102,8.1160853 6.4187949,8.5489468 6.2482471,8.8035853 6.108708,9.0202936 6.108708,9.0305209 c 0,0.010227 0.18698,-0.046208 0.4155112,-0.1254123 0.3411793,-0.1182455 0.4304513,-0.142398 0.4990267,-0.1350115 0.1141381,0.012294 0.1941998,0.092431 0.2071524,0.2073474 0.00929,0.082453 0.00283,0.094239 -0.3106512,0.5661714 -0.1760783,0.265081 -0.3160922,0.4860161 -0.3111419,0.4909661 0.00495,0.0049 0.1872464,-0.050567 0.4051025,-0.1233711 0.2725827,-0.091093 0.3987416,-0.1252635 0.404567,-0.1095773 0.047191,0.1270733 0.1405274,0.4226004 0.1351638,0.4279644 -0.02619,0.02619 -1.5057387,0.502111 -1.5590787,0.501503 -0.036927,-4.2e-4 -0.090673,-0.01353 -0.1194351,-0.02914 z"
     id="path837" />
</svg>
