<?xml version="1.0" encoding="UTF-8" standalone="no"?>
<svg
   xmlns:dc="http://purl.org/dc/elements/1.1/"
   xmlns:cc="http://creativecommons.org/ns#"
   xmlns:rdf="http://www.w3.org/1999/02/22-rdf-syntax-ns#"
   xmlns:svg="http://www.w3.org/2000/svg"
   xmlns="http://www.w3.org/2000/svg"
   xmlns:sodipodi="http://sodipodi.sourceforge.net/DTD/sodipodi-0.dtd"
   xmlns:inkscape="http://www.inkscape.org/namespaces/inkscape"
   width="16"
   height="16"
   fill="currentColor"
   class="bi bi-bookmarks"
   viewBox="0 0 16 16"
   version="1.1"
   id="svg6"
   sodipodi:docname="bookmarks.svg"
   inkscape:version="1.0.2-2 (e86c870879, 2021-01-15)">
  <metadata
     id="metadata12">
    <rdf:RDF>
      <cc:Work
         rdf:about="">
        <dc:format>image/svg+xml</dc:format>
        <dc:type
           rdf:resource="http://purl.org/dc/dcmitype/StillImage" />
      </cc:Work>
    </rdf:RDF>
  </metadata>
  <defs
     id="defs10" />
  <sodipodi:namedview
     pagecolor="#ffffff"
     bordercolor="#666666"
     borderopacity="1"
     objecttolerance="10"
     gridtolerance="10"
     guidetolerance="10"
     inkscape:pageopacity="0"
     inkscape:pageshadow="2"
     inkscape:window-width="861"
     inkscape:window-height="480"
     id="namedview8"
     showgrid="false"
     inkscape:zoom="17.908891"
     inkscape:cx="8"
     inkscape:cy="8"
     inkscape:window-x="0"
     inkscape:window-y="0"
     inkscape:window-maximized="0"
     inkscape:current-layer="svg6" />
  <path
     d="M2 4a2 2 0 0 1 2-2h6a2 2 0 0 1 2 2v11.5a.5.5 0 0 1-.777.416L7 13.101l-4.223 2.815A.5.5 0 0 1 2 15.5V4zm2-1a1 1 0 0 0-1 1v10.566l3.723-2.482a.5.5 0 0 1 .554 0L11 14.566V4a1 1 0 0 0-1-1H4z"
     id="path2"
     style="fill:#ffffff" />
  <path
     d="M4.268 1H12a1 1 0 0 1 1 1v11.768l.223.148A.5.5 0 0 0 14 13.5V2a2 2 0 0 0-2-2H6a2 2 0 0 0-1.732 1z"
     id="path4"
     style="fill:#ffffff" />
</svg>
