<?xml version="1.0" encoding="UTF-8" standalone="no"?>
<svg
   width="16"
   height="16"
   fill="currentColor"
   class="bi bi-box-arrow-in-right"
   viewBox="0 0 16 16"
   version="1.1"
   id="svg6"
   sodipodi:docname="box-arrow-in-right.svg"
   inkscape:version="1.1.2 (b8e25be833, 2022-02-05)"
   xmlns:inkscape="http://www.inkscape.org/namespaces/inkscape"
   xmlns:sodipodi="http://sodipodi.sourceforge.net/DTD/sodipodi-0.dtd"
   xmlns="http://www.w3.org/2000/svg"
   xmlns:svg="http://www.w3.org/2000/svg"
   xmlns:rdf="http://www.w3.org/1999/02/22-rdf-syntax-ns#"
   xmlns:cc="http://creativecommons.org/ns#"
   xmlns:dc="http://purl.org/dc/elements/1.1/">
  <metadata
     id="metadata7">
    <rdf:RDF>
      <cc:Work
         rdf:about="">
        <dc:format>image/svg+xml</dc:format>
        <dc:type
           rdf:resource="http://purl.org/dc/dcmitype/StillImage" />
      </cc:Work>
    </rdf:RDF>
  </metadata>
  <defs
     id="defs10" />
  <sodipodi:namedview
     id="namedview8"
     pagecolor="#ffffff"
     bordercolor="#666666"
     borderopacity="1.0"
     inkscape:pageshadow="2"
     inkscape:pageopacity="0.0"
     inkscape:pagecheckerboard="0"
     showgrid="false"
     inkscape:zoom="88.144074"
     inkscape:cx="14.896067"
     inkscape:cy="9.3256411"
     inkscape:window-width="3840"
     inkscape:window-height="2480"
     inkscape:window-x="-11"
     inkscape:window-y="-11"
     inkscape:window-maximized="1"
     inkscape:current-layer="svg6"
     inkscape:document-rotation="0" />
  <path
     fill-rule="evenodd"
     d="m 4.7760779,3.4109875 a 0.5,0.5 0 0 1 0.5,-0.5 h 7.9999991 a 0.5,0.5 0 0 1 0.5,0.5 v 8.9999995 a 0.5,0.5 0 0 1 -0.5,0.5 H 5.2760779 a 0.5,0.5 0 0 1 -0.5,-0.5 v -2 a 0.5,0.5 0 0 0 -1,0 v 2 a 1.5,1.5 0 0 0 1.5,1.5 h 7.9999991 a 1.5,1.5 0 0 0 1.5,-1.5 V 3.4109875 a 1.5,1.5 0 0 0 -1.5,-1.5 H 5.2760779 a 1.5,1.5 0 0 0 -1.5,1.5 v 2 a 0.5,0.5 0 0 0 1,0 z"
     id="path2"
     style="fill:#51687a;fill-opacity:1" />
  <path
     fill-rule="evenodd"
     d="m 11.00838,8.2649875 a 0.5,0.5 0 0 0 0,-0.708 l -2.9999989,-3 a 0.5006316,0.5006316 0 1 0 -0.708,0.708 l 2.147,2.146 H 0.65438108 a 0.5,0.5 0 0 0 0,1 H 9.4473811 l -2.147,2.1459995 a 0.5006316,0.5006316 0 0 0 0.708,0.708 z"
     id="path4"
     style="fill:#51687a;fill-opacity:1" />
  <path
     id="path1270"
     style="fill:#51687a;fill-opacity:1;fill-rule:evenodd"
     d="m 5.2753906,1.9101562 a 1.5,1.5 0 0 0 -1.5,1.5 v 2 a 0.5,0.5 0 0 0 1,0 v -2 a 0.5,0.5 0 0 1 0.5,-0.5 h 8.0000004 a 0.5,0.5 0 0 1 0.5,0.5 v 8.9999998 a 0.5,0.5 0 0 1 -0.5,0.5 H 7.3515625 c 2.885e-4,0.03379 0,0.0675 0,0.101563 0,0.01257 0.012097,0.03566 0,0.03906 -0.014556,0.0041 -0.030047,0.0033 -0.044922,0.0059 0,0 0,0.002 0,0.002 0.015005,-8.13e-4 0.029875,-0.0045 0.044922,-0.0039 0.00702,2.53e-4 0.00233,0.01221 0,0.02148 -0.00106,0.0042 0,0.0066 0,0.0098 v 0.18164 0.642578 h 5.9238285 a 1.5,1.5 0 0 0 1.5,-1.5 V 3.4101562 a 1.5,1.5 0 0 0 -1.5,-1.5 z M 7.3515625,13.076172 c -0.015027,-0.0018 -0.029764,-0.0048 -0.044922,-0.0059 0,0 0,0.002 0,0.002 0.014968,0.002 0.029937,0.0024 0.044922,0.0039 z" />
  <path
     id="path1272"
     style="fill:#51687a;fill-opacity:1;fill-rule:evenodd"
     d="M 7.6308594,4.4101562 A 0.5006316,0.5006316 0 0 0 7.3007812,5.265625 L 9.4472656,7.4101562 H 0.65429688 a 0.5,0.5 0 0 0 0,1 H 9.4472656 L 7.3007812,10.556641 a 0.50063749,0.50063749 0 0 0 0.7070313,0.708984 l 2.9999995,-3 a 0.5,0.5 0 0 0 0,-0.7089844 l -2.9999995,-3 A 0.5006316,0.5006316 0 0 0 7.6308594,4.4101562 Z" />
</svg>
