<?xml version="1.0" encoding="UTF-8" standalone="no"?>
<svg
   width="16"
   height="16"
   fill="currentColor"
   class="bi bi-chat-dots-fill"
   viewBox="0 0 16 16"
   version="1.1"
   id="svg4"
   sodipodi:docname="chat-dots-fill.svg"
   inkscape:version="1.1.1 (3bf5ae0d25, 2021-09-20)"
   xmlns:inkscape="http://www.inkscape.org/namespaces/inkscape"
   xmlns:sodipodi="http://sodipodi.sourceforge.net/DTD/sodipodi-0.dtd"
   xmlns="http://www.w3.org/2000/svg"
   xmlns:svg="http://www.w3.org/2000/svg">
  <defs
     id="defs8" />
  <sodipodi:namedview
     id="namedview6"
     pagecolor="#505050"
     bordercolor="#ffffff"
     borderopacity="1"
     inkscape:pageshadow="0"
     inkscape:pageopacity="0"
     inkscape:pagecheckerboard="1"
     showgrid="false"
     inkscape:zoom="50.875"
     inkscape:cx="8"
     inkscape:cy="7.990172"
     inkscape:window-width="2560"
     inkscape:window-height="1653"
     inkscape:window-x="-8"
     inkscape:window-y="-8"
     inkscape:window-maximized="1"
     inkscape:current-layer="svg4" />
  <path
     d="M16 8c0 3.866-3.582 7-8 7a9.06 9.06 0 0 1-2.347-.306c-.584.296-1.925.864-4.181 1.234-.2.032-.352-.176-.273-.362.354-.836.674-1.95.77-2.966C.744 11.37 0 9.76 0 8c0-3.866 3.582-7 8-7s8 3.134 8 7zM5 8a1 1 0 1 0-2 0 1 1 0 0 0 2 0zm4 0a1 1 0 1 0-2 0 1 1 0 0 0 2 0zm3 1a1 1 0 1 0 0-2 1 1 0 0 0 0 2z"
     id="path2"
     style="fill:#ffffff" />
</svg>
