<?xml version="1.0" encoding="UTF-8" standalone="no"?>
<svg
   width="16"
   height="16"
   fill="currentColor"
   class="bi bi-cloud-plus-fill"
   viewBox="0 0 16 16"
   version="1.1"
   id="svg4"
   sodipodi:docname="cloud-plus-fill.svg"
   inkscape:version="1.1.2 (b8e25be833, 2022-02-05)"
   xmlns:inkscape="http://www.inkscape.org/namespaces/inkscape"
   xmlns:sodipodi="http://sodipodi.sourceforge.net/DTD/sodipodi-0.dtd"
   xmlns="http://www.w3.org/2000/svg"
   xmlns:svg="http://www.w3.org/2000/svg">
  <defs
     id="defs8" />
  <sodipodi:namedview
     id="namedview6"
     pagecolor="#ffffff"
     bordercolor="#666666"
     borderopacity="1.0"
     inkscape:pageshadow="2"
     inkscape:pageopacity="0.0"
     inkscape:pagecheckerboard="0"
     showgrid="false"
     inkscape:zoom="179.75"
     inkscape:cx="8.876217"
     inkscape:cy="7.4269819"
     inkscape:window-width="3840"
     inkscape:window-height="2480"
     inkscape:window-x="-11"
     inkscape:window-y="-11"
     inkscape:window-maximized="1"
     inkscape:current-layer="svg4" />
  <path
     d="M8 2a5.53 5.53 0 0 0-3.594 1.342c-.766.66-1.321 1.52-1.464 2.383C1.266 6.095 0 7.555 0 9.318 0 11.366 1.708 13 3.781 13h8.906C14.502 13 16 11.57 16 9.773c0-1.636-1.242-2.969-2.834-3.194C12.923 3.999 10.69 2 8 2zm.5 4v1.5H10a.5.5 0 0 1 0 1H8.5V10a.5.5 0 0 1-1 0V8.5H6a.5.5 0 0 1 0-1h1.5V6a.5.5 0 0 1 1 0z"
     id="path2"
     style="fill:#ffffff" />
  <path
     style="fill:#000000;stroke:#000000;stroke-width:0.168213;stroke-linecap:round;stroke-linejoin:round;stroke-miterlimit:111;stroke-opacity:1"
     d="M 7.8527971,10.462923 C 7.7349563,10.418946 7.6428179,10.34681 7.5843227,10.252731 7.5332811,10.17064 7.5325557,10.160035 7.5215577,9.3351878 L 7.5104312,8.5006954 6.6870654,8.4895688 5.8636996,8.4784423 5.7645487,8.4228095 C 5.7100156,8.3922114 5.6349113,8.323755 5.5976502,8.2706839 5.5361435,8.1830801 5.5299026,8.158145 5.5299026,8 c 0,-0.158145 0.00624,-0.1830801 0.067748,-0.2706839 0.037261,-0.053071 0.1123654,-0.1215275 0.1668985,-0.1521256 l 0.099151,-0.055633 0.8233658,-0.011126 0.8233658,-0.011127 0.011126,-0.8361634 0.011127,-0.8361633 0.060698,-0.091675 c 0.1910282,-0.2885189 0.6222076,-0.2885189 0.8132358,0 l 0.060698,0.091675 0.011127,0.8361633 0.011127,0.8361634 0.8233658,0.011127 0.8233657,0.011126 0.09915,0.055633 c 0.05453,0.030598 0.129638,0.099055 0.166899,0.1521256 0.06151,0.087604 0.06775,0.1125389 0.06775,0.2706839 0,0.158145 -0.0062,0.1830801 -0.06775,0.2706839 -0.03726,0.053071 -0.112366,0.1215275 -0.166899,0.1521256 l -0.09915,0.055633 -0.8233657,0.011127 -0.8233658,0.011127 -0.011127,0.8361633 -0.011127,0.8361632 -0.060698,0.09168 c -0.1154704,0.1744 -0.3718082,0.26615 -0.5538208,0.198226 z"
     id="path1132" />
</svg>
