<?xml version="1.0" encoding="UTF-8" standalone="no"?>
<svg
   width="16"
   height="16"
   fill="currentColor"
   class="bi bi-envelope-check"
   viewBox="0 0 16 16"
   version="1.1"
   id="svg6"
   sodipodi:docname="envelope-check.svg"
   inkscape:version="1.1.2 (b8e25be833, 2022-02-05)"
   xmlns:inkscape="http://www.inkscape.org/namespaces/inkscape"
   xmlns:sodipodi="http://sodipodi.sourceforge.net/DTD/sodipodi-0.dtd"
   xmlns="http://www.w3.org/2000/svg"
   xmlns:svg="http://www.w3.org/2000/svg"
   xmlns:rdf="http://www.w3.org/1999/02/22-rdf-syntax-ns#"
   xmlns:cc="http://creativecommons.org/ns#"
   xmlns:dc="http://purl.org/dc/elements/1.1/">
  <metadata
     id="metadata12">
    <rdf:RDF>
      <cc:Work
         rdf:about="">
        <dc:format>image/svg+xml</dc:format>
        <dc:type
           rdf:resource="http://purl.org/dc/dcmitype/StillImage" />
      </cc:Work>
    </rdf:RDF>
  </metadata>
  <defs
     id="defs10" />
  <sodipodi:namedview
     pagecolor="#ffffff"
     bordercolor="#666666"
     borderopacity="1"
     objecttolerance="10"
     gridtolerance="10"
     guidetolerance="10"
     inkscape:pageopacity="0"
     inkscape:pageshadow="2"
     inkscape:window-width="3840"
     inkscape:window-height="2480"
     id="namedview8"
     showgrid="false"
     inkscape:zoom="50.977058"
     inkscape:cx="7.993792"
     inkscape:cy="9.5729338"
     inkscape:window-x="-11"
     inkscape:window-y="-11"
     inkscape:window-maximized="1"
     inkscape:current-layer="svg6"
     inkscape:pagecheckerboard="0"
     inkscape:document-rotation="0" />
  <path
     d="M2 2a2 2 0 0 0-2 2v8.01A2 2 0 0 0 2 14h5.5a.5.5 0 0 0 0-1H2a1 1 0 0 1-.966-.741l5.64-3.471L8 9.583l7-4.2V8.5a.5.5 0 0 0 1 0V4a2 2 0 0 0-2-2H2Zm3.708 6.208L1 11.105V5.383l4.708 2.825ZM1 4.217V4a1 1 0 0 1 1-1h12a1 1 0 0 1 1 1v.217l-7 4.2-7-4.2Z"
     id="path2"
     style="fill:#e6e6e6;fill-opacity:1" />
  <path
     d="M16 12.5a3.5 3.5 0 1 1-7 0 3.5 3.5 0 0 1 7 0Zm-1.993-1.679a.5.5 0 0 0-.686.172l-1.17 1.95-.547-.547a.5.5 0 0 0-.708.708l.774.773a.75.75 0 0 0 1.174-.144l1.335-2.226a.5.5 0 0 0-.172-.686Z"
     id="path4"
     style="fill:#e6e6e6;fill-opacity:1" />
</svg>
