<?xml version="1.0" encoding="UTF-8" standalone="no"?>
<svg
   width="16"
   height="16"
   fill="currentColor"
   class="bi bi-link"
   viewBox="0 0 16 16"
   version="1.1"
   id="svg6"
   sodipodi:docname="link.svg"
   inkscape:version="1.1.1 (3bf5ae0d25, 2021-09-20)"
   xmlns:inkscape="http://www.inkscape.org/namespaces/inkscape"
   xmlns:sodipodi="http://sodipodi.sourceforge.net/DTD/sodipodi-0.dtd"
   xmlns="http://www.w3.org/2000/svg"
   xmlns:svg="http://www.w3.org/2000/svg">
  <defs
     id="defs10" />
  <sodipodi:namedview
     id="namedview8"
     pagecolor="#505050"
     bordercolor="#ffffff"
     borderopacity="1"
     inkscape:pageshadow="0"
     inkscape:pageopacity="0"
     inkscape:pagecheckerboard="1"
     showgrid="false"
     inkscape:zoom="50.875"
     inkscape:cx="8.009828"
     inkscape:cy="4.2850123"
     inkscape:window-width="1457"
     inkscape:window-height="1050"
     inkscape:window-x="390"
     inkscape:window-y="390"
     inkscape:window-maximized="0"
     inkscape:current-layer="svg6" />
  <g
     id="g824"
     transform="rotate(90,8,8.5)">
    <path
       d="M 6.354,5.5 H 4 a 3,3 0 0 0 0,6 h 3 a 3,3 0 0 0 2.83,-4 H 9 C 8.914,7.5 8.83,7.51 8.75,7.531 A 2,2 0 0 1 7,10.5 H 4 a 2,2 0 1 1 0,-4 H 5.535 C 5.753,6.124 6.03,5.786 6.355,5.5 Z"
       id="path2"
       style="fill:#ffffff" />
    <path
       d="m 9,5.5 a 3,3 0 0 0 -2.83,4 H 7.268 A 2,2 0 0 1 9,6.5 h 3 a 2,2 0 1 1 0,4 h -1.535 a 4.02,4.02 0 0 1 -0.82,1 H 12 a 3,3 0 1 0 0,-6 z"
       id="path4"
       style="fill:#ffffff" />
  </g>
</svg>
