<?xml version="1.0" encoding="UTF-8" standalone="no"?>
<svg
   width="16"
   height="16"
   fill="currentColor"
   class="bi bi-printer"
   viewBox="0 0 16 16"
   version="1.1"
   id="svg6"
   sodipodi:docname="printer.svg"
   inkscape:version="1.1.2 (b8e25be833, 2022-02-05)"
   xmlns:inkscape="http://www.inkscape.org/namespaces/inkscape"
   xmlns:sodipodi="http://sodipodi.sourceforge.net/DTD/sodipodi-0.dtd"
   xmlns="http://www.w3.org/2000/svg"
   xmlns:svg="http://www.w3.org/2000/svg">
  <defs
     id="defs10" />
  <sodipodi:namedview
     id="namedview8"
     pagecolor="#ffffff"
     bordercolor="#666666"
     borderopacity="1.0"
     inkscape:pageshadow="2"
     inkscape:pageopacity="0.0"
     inkscape:pagecheckerboard="0"
     showgrid="false"
     inkscape:zoom="44.9375"
     inkscape:cx="8"
     inkscape:cy="-6.2531293"
     inkscape:window-width="3840"
     inkscape:window-height="2480"
     inkscape:window-x="-11"
     inkscape:window-y="-11"
     inkscape:window-maximized="1"
     inkscape:current-layer="svg6" />
  <path
     d="M2.5 8a.5.5 0 1 0 0-1 .5.5 0 0 0 0 1z"
     id="path2"
     style="fill:#ffffff" />
  <path
     d="M5 1a2 2 0 0 0-2 2v2H2a2 2 0 0 0-2 2v3a2 2 0 0 0 2 2h1v1a2 2 0 0 0 2 2h6a2 2 0 0 0 2-2v-1h1a2 2 0 0 0 2-2V7a2 2 0 0 0-2-2h-1V3a2 2 0 0 0-2-2H5zM4 3a1 1 0 0 1 1-1h6a1 1 0 0 1 1 1v2H4V3zm1 5a2 2 0 0 0-2 2v1H2a1 1 0 0 1-1-1V7a1 1 0 0 1 1-1h12a1 1 0 0 1 1 1v3a1 1 0 0 1-1 1h-1v-1a2 2 0 0 0-2-2H5zm7 2v3a1 1 0 0 1-1 1H5a1 1 0 0 1-1-1v-3a1 1 0 0 1 1-1h6a1 1 0 0 1 1 1z"
     id="path4"
     style="fill:#ffffff" />
</svg>
