<?xml version="1.0" encoding="UTF-8" standalone="no"?>
<svg
   width="16"
   height="16"
   fill="currentColor"
   class="bi bi-qr-code-scan"
   viewBox="0 0 16 16"
   version="1.1"
   id="svg12"
   sodipodi:docname="qr-code-scan.svg"
   inkscape:version="1.1.2 (b8e25be833, 2022-02-05)"
   xmlns:inkscape="http://www.inkscape.org/namespaces/inkscape"
   xmlns:sodipodi="http://sodipodi.sourceforge.net/DTD/sodipodi-0.dtd"
   xmlns="http://www.w3.org/2000/svg"
   xmlns:svg="http://www.w3.org/2000/svg"
   xmlns:rdf="http://www.w3.org/1999/02/22-rdf-syntax-ns#"
   xmlns:cc="http://creativecommons.org/ns#"
   xmlns:dc="http://purl.org/dc/elements/1.1/">
  <metadata
     id="metadata18">
    <rdf:RDF>
      <cc:Work
         rdf:about="">
        <dc:format>image/svg+xml</dc:format>
        <dc:type
           rdf:resource="http://purl.org/dc/dcmitype/StillImage" />
        <dc:title />
      </cc:Work>
    </rdf:RDF>
  </metadata>
  <defs
     id="defs16" />
  <sodipodi:namedview
     pagecolor="#ffffff"
     bordercolor="#666666"
     borderopacity="1"
     objecttolerance="10"
     gridtolerance="10"
     guidetolerance="10"
     inkscape:pageopacity="0"
     inkscape:pageshadow="2"
     inkscape:window-width="3840"
     inkscape:window-height="2480"
     id="namedview14"
     showgrid="false"
     inkscape:zoom="16.461708"
     inkscape:cx="-5.8620892"
     inkscape:cy="8.018609"
     inkscape:window-x="-11"
     inkscape:window-y="-11"
     inkscape:window-maximized="1"
     inkscape:current-layer="svg12"
     inkscape:pagecheckerboard="0" />
  <path
     d="M0 .5A.5.5 0 0 1 .5 0h3a.5.5 0 0 1 0 1H1v2.5a.5.5 0 0 1-1 0v-3Zm12 0a.5.5 0 0 1 .5-.5h3a.5.5 0 0 1 .5.5v3a.5.5 0 0 1-1 0V1h-2.5a.5.5 0 0 1-.5-.5ZM.5 12a.5.5 0 0 1 .5.5V15h2.5a.5.5 0 0 1 0 1h-3a.5.5 0 0 1-.5-.5v-3a.5.5 0 0 1 .5-.5Zm15 0a.5.5 0 0 1 .5.5v3a.5.5 0 0 1-.5.5h-3a.5.5 0 0 1 0-1H15v-2.5a.5.5 0 0 1 .5-.5ZM4 4h1v1H4V4Z"
     id="path2"
     style="fill:#ffffff" />
  <path
     d="M7 2H2v5h5V2ZM3 3h3v3H3V3Zm2 8H4v1h1v-1Z"
     id="path4"
     style="fill:#ffffff" />
  <path
     d="M7 9H2v5h5V9Zm-4 1h3v3H3v-3Zm8-6h1v1h-1V4Z"
     id="path6"
     style="fill:#ffffff" />
  <path
     d="M9 2h5v5H9V2Zm1 1v3h3V3h-3ZM8 8v2h1v1H8v1h2v-2h1v2h1v-1h2v-1h-3V8H8Zm2 2H9V9h1v1Zm4 2h-1v1h-2v1h3v-2Zm-4 2v-1H8v1h2Z"
     id="path8"
     style="fill:#ffffff" />
  <path
     d="M12 9h2V8h-2v1Z"
     id="path10"
     style="fill:#ffffff" />
</svg>
